<svg xmlns="http://www.w3.org/2000/svg" viewBox="0 0 100 100" width="100%" height="100%">
  <!-- 黑色背景 -->
  <rect width="100" height="100" fill="#000000" />
  
  <!-- 书本外轮廓 -->
  <path d="M 33,36 H 42 Q 47,36 50,42 Q 53,36 58,36 H 67 A 3,3 0 0 1 70,39 V 57 A 3,3 0 0 1 67,60 H 58 Q 53,60 50,66 Q 47,60 42,60 H 33 A 3,3 0 0 1 30,57 V 39 A 3,3 0 0 1 33,36 Z" 
        fill="none" 
        stroke="#ffffff" 
        stroke-width="4" 
        stroke-linecap="round" 
        stroke-linejoin="round" />
        
  <!-- 书脊中央分界线 -->
  <line x1="50" y1="42" x2="50" y2="66" 
        stroke="#ffffff" 
        stroke-width="4" 
        stroke-linecap="round" 
        stroke-linejoin="round" />
</svg>