<svg xmlns="http://www.w3.org/2000/svg" width="662" height="662" viewBox="70.06 70.20 522.42 522.42" version="1.1">
	<path d="M 104.920 85.343 C 97.629 88.342, 92.757 92.141, 89.079 97.695 C 82.494 107.636, 82.956 89.041, 83.241 332.535 L 83.500 553.500 86.081 559.002 C 90.724 568.899, 100.193 576.420, 111.209 578.961 C 113.969 579.598, 192.389 579.954, 331 579.960 C 506.778 579.967, 547.541 579.724, 552.147 578.640 C 565.964 575.387, 575.922 565.114, 578.939 551 C 579.821 546.872, 580.038 501.597, 579.807 369.500 L 579.500 193.500 577.207 188.500 C 575.370 184.495, 565.519 174.082, 527.707 136.177 C 493.942 102.329, 479.076 88.092, 475.500 86.177 C 470.640 83.575, 469.949 83.491, 450.796 83.175 L 431.092 82.851 430.796 140.198 L 430.500 197.546 427.240 204.165 C 423.482 211.797, 417.984 217.202, 410.489 220.634 L 405.239 223.037 330.369 222.769 L 255.500 222.500 250.696 220.046 C 244.743 217.005, 237.564 209.462, 234.679 203.217 C 232.531 198.567, 232.496 197.676, 232.219 140.750 L 231.938 83 171.219 83.024 L 110.500 83.047 104.920 85.343 M 248.219 95.250 L 248.500 107.500 306.250 107.758 L 364 108.016 364 153.532 L 364 199.048 380.502 198.774 C 389.578 198.623, 397.003 198.162, 397.002 197.750 C 397.001 197.338, 397 171.350, 397 140 L 397 83 322.469 83 L 247.938 83 248.219 95.250 M 204.763 283.565 C 198.768 286.818, 199 283.199, 199 373.465 L 199 456.029 202.250 459.409 C 205.296 462.577, 207.571 463.359, 238.500 471.875 C 256.650 476.873, 280.275 483.386, 291 486.348 C 301.725 489.309, 315.257 492.965, 321.070 494.470 L 331.640 497.208 370.070 486.678 C 445.781 465.933, 456.532 462.867, 458.834 461.366 C 464.077 457.946, 464 459.271, 464 373 C 464 307.221, 463.754 292.347, 462.621 289.636 C 460.666 284.956, 456.516 282, 451.901 282 C 449.795 282, 435.794 285.575, 420.786 289.945 C 405.779 294.314, 379.471 301.922, 362.325 306.851 L 331.150 315.812 324.825 313.919 C 282.735 301.322, 213.801 282.009, 211.041 282.040 C 209.094 282.062, 206.268 282.748, 204.763 283.565 M 224 376.464 L 224 443.578 267.750 455.924 C 291.813 462.713, 312.291 468.487, 313.257 468.753 C 314.922 469.212, 315.001 465.744, 314.757 402.373 L 314.500 335.510 269.250 322.430 L 224 309.350 224 376.464 M 393.257 322.356 L 348.014 335.500 348.007 402.357 C 348.001 455.416, 348.258 469.122, 349.250 468.769 C 349.938 468.524, 370.413 462.739, 394.750 455.913 L 439 443.504 439 376.252 C 439 339.263, 438.887 309.048, 438.750 309.106 C 438.613 309.165, 418.141 315.127, 393.257 322.356" stroke="none" fill="black" fill-rule="evenodd"/>
</svg>