<svg xmlns="http://www.w3.org/2000/svg" width="662" height="662" viewBox="80 80 502 502" fill="none">
  <!-- 文件夹/卡片主体轮廓 -->
  <path d="M 116,84 
           L 216,84 
           A 16,16 0 0,1 232,100 
           L 232,206 
           A 16,16 0 0,0 248,222 
           L 390,222 
           A 16,16 0 0,0 406,206 
           L 406,100 
           A 16,16 0 0,1 422,84 
           L 478,84 
           L 578,184 
           L 578,546 
           A 32,32 0 0,1 546,578 
           L 116,578 
           A 32,32 0 0,1 84,546 
           L 84,116 
           A 32,32 0 0,1 116,84 Z" 
        fill="#1e293b" />

  <!-- 折角立体页片 -->
  <path d="M 478,84 
           L 478,168 
           A 16,16 0 0,0 494,184 
           L 578,184 Z" 
        fill="#334155" />

  <!-- 上方对称悬挂夹/标签 -->
  <path d="M 260,84 
           L 260,116 
           A 12,12 0 0,0 272,128 
           L 366,128 
           A 12,12 0 0,0 378,116 
           L 378,84 Z" 
        fill="#475569" />

  <!-- ================= 书籍底座 (更宽厚的封底) ================= -->
  <path d="M 190,444 
           C 230,460 274,474 331,488 
           C 388,474 432,460 472,444 
           L 472,282 
           C 432,298 388,306 331,315 
           C 274,306 230,298 190,282 Z" 
        fill="#0f172a" />

  <!-- 书脊中缝分割线 -->
  <path d="M 331,315 L 331,488" stroke="#1e293b" stroke-width="4" stroke-linecap="round" />

  <!-- ================= 左半部分：半透明无边框翻页 (由后向前) ================= -->
  <path d="M 205,435 C 238,448 276,458 314,464 L 314,324 C 276,318 238,308 205,295 Z" fill="#ffffff" opacity="0.18" />
  <path d="M 216,444 C 247,456 280,465 314,470 L 314,332 C 280,327 247,318 216,306 Z" fill="#ffffff" opacity="0.45" />
  <path d="M 227,453 C 256,464 285,471 314,476 L 314,340 C 285,335 256,328 227,317 Z" fill="#ffffff" opacity="0.75" />

  <!-- ================= 右半部分：半透明无边框翻页 (由后向前) ================= -->
  <path d="M 457,435 C 424,448 386,458 348,464 L 348,324 C 386,318 424,308 457,295 Z" fill="#ffffff" opacity="0.18" />
  <path d="M 446,444 C 415,456 382,465 348,470 L 348,332 C 382,327 415,318 446,306 Z" fill="#ffffff" opacity="0.45" />
  <path d="M 435,453 C 406,464 377,471 348,476 L 348,340 C 377,335 406,328 435,317 Z" fill="#ffffff" opacity="0.75" />
</svg>